<svg width="147" height="147" viewBox="0 0 147 147" fill="none" xmlns="http://www.w3.org/2000/svg">
<path fill-rule="evenodd" clip-rule="evenodd" d="M0 0H147V147H0V0Z" fill="white"/>
<path fill-rule="evenodd" clip-rule="evenodd" d="M42.3743 29.9642L37.7887 27.8075L40.756 34.0107L37.2487 41.5629L42.1051 38.8655L48.0368 46.6854L46.9584 36.978L52.6224 34.0107L46.9584 31.5832L47.7676 23.2211L42.3743 29.9642ZM59.7377 104.337C37.6163 98.3538 21.5166 78.1817 21.5166 54.1691C21.5166 25.4479 44.8025 2.16127 73.5252 2.16127C102.249 2.16127 125.532 25.4479 125.532 54.1691C125.532 68.032 120.108 80.6275 111.267 89.9505C111.267 89.9505 107.646 85.2543 106.567 83.6383C105.487 82.0192 103.871 81.8179 104.14 79.5911C104.465 76.9013 106.567 74.1963 106.567 74.1963L107.106 76.353C107.106 76.353 122.249 60.4363 120.592 49.6536C119.511 42.6413 115.197 41.8321 115.197 41.8321C115.197 41.8321 116.275 35.359 106.296 30.5034C96.3161 25.6493 88.7646 26.4584 88.7646 26.4584L93.0811 29.695C93.0811 29.695 87.8884 28.7676 85.2581 29.425L83.1014 29.9649L85.8987 31.3148C85.8987 31.3148 80.2027 31.5718 76.3583 34.5514C73.3566 36.8781 73.1217 38.3279 73.1217 38.3279H75.2799C75.2799 38.3279 73.3909 41.5644 72.8525 44.8002C72.3133 48.0368 72.549 48.9138 72.549 48.9138C72.549 48.9138 72.549 50.4307 69.818 52.4539C67.82 53.9342 65.8745 54.2751 65.2667 55.0834C64.3508 56.3052 67.1885 58.2864 67.1885 58.2864C67.1885 58.2864 66.9864 59.7362 65.6709 61.3545C65.07 62.0942 67.1885 63.3769 67.8962 63.6812L66.1773 65.0967C66.1773 65.0967 65.571 65.7037 66.5807 66.4107C67.5935 67.1191 67.1878 68.6368 66.7843 70.2543C66.3794 71.8733 65.571 74.4022 71.0314 75.0069C76.494 75.6147 76.7976 76.626 77.3024 77.3337C77.8088 78.0445 80.9424 86.9427 79.3249 88.3605C77.1011 90.3044 73.1919 89.7294 65.6701 94.8321C60.0069 98.6734 59.7377 104.337 59.7377 104.337Z" fill="#28539C"/>
<path fill-rule="evenodd" clip-rule="evenodd" d="M76.459 33C76.459 33 78.2778 35.7317 78.9863 36.2366C79.694 36.7422 79.8961 37.4499 79.3897 37.5521C78.8833 37.652 75.3425 37.5521 75.3425 37.5521L75.5469 36.945C75.5469 36.945 75.2433 36.1367 75.5469 35.3268C75.8504 34.5176 76.6595 34.2141 76.6595 34.2141L76.459 33ZM15.0008 110.506H22.8527C28.8439 110.506 30.0831 116.175 30.0831 119.917C30.0831 124.155 28.5716 130.264 22.7025 130.264H15L15.0008 110.506ZM18.6415 126.852H22.2579C25.2786 126.852 26.2937 123.467 26.2937 120.22C26.2937 114.386 23.7915 113.919 22.2068 113.919H18.6408L18.6415 126.852ZM36.7317 130.265H32.8187L39.1599 110.507H43.4435L49.7107 130.265H45.6734L44.5333 126.192H37.9709L36.7317 130.265ZM38.9616 122.78H43.4939L41.2883 114.963H41.2403L38.9616 122.78ZM65.5069 110.506H68.9746V130.265H65.2583L58.0027 116.175H57.9524V130.265H54.4855V110.506H58.3985L65.4566 124.266H65.5069V110.506ZM83.7481 109.827C86.3425 109.827 93.1695 110.977 93.1695 120.438C93.1695 129.898 86.3433 131.051 83.7481 131.051C81.1552 131.051 74.3282 129.898 74.3282 120.438C74.329 110.977 81.1552 109.827 83.7481 109.827ZM83.7481 127.485C85.9597 127.485 89.0727 126.082 89.0727 120.438C89.0727 114.797 85.9597 113.393 83.7481 113.393C81.538 113.393 78.4235 114.797 78.4235 120.438C78.4235 126.082 81.538 127.485 83.7481 127.485ZM109.735 110.506H113.203V130.265H109.488L102.232 116.175H102.184V130.265H98.7146V110.506H102.628L109.685 124.266H109.735V110.506ZM130.292 114H123.32V118.155H129.527V121.653H123.32V126.771H130.715V130.265H119.679V110.506H130.292V114Z" fill="#28539C"/>
</svg>
