<svg width="24" height="25" viewBox="0 0 24 25" fill="none" xmlns="http://www.w3.org/2000/svg">
<path d="M3 6.03448C4.65685 6.03448 5.99999 4.69133 5.99999 3.03448C5.99999 1.37763 4.65685 0.0344849 3 0.0344849C1.34314 0.0344849 0 1.37763 0 3.03448C0 4.69133 1.34314 6.03448 3 6.03448Z" fill="#E8F3FF"/>
<path d="M12 6.03448C13.6568 6.03448 15 4.69133 15 3.03448C15 1.37763 13.6568 0.0344849 12 0.0344849C10.3431 0.0344849 9 1.37763 9 3.03448C9 4.69133 10.3431 6.03448 12 6.03448Z" fill="#E8F3FF"/>
<path d="M21 6.03448C22.6568 6.03448 24 4.69133 24 3.03448C24 1.37763 22.6568 0.0344849 21 0.0344849C19.3431 0.0344849 18 1.37763 18 3.03448C18 4.69133 19.3431 6.03448 21 6.03448Z" fill="#E8F3FF"/>
<path d="M3 15.0345C4.65685 15.0345 5.99999 13.6913 5.99999 12.0345C5.99999 10.3776 4.65685 9.03448 3 9.03448C1.34314 9.03448 0 10.3776 0 12.0345C0 13.6913 1.34314 15.0345 3 15.0345Z" fill="#E8F3FF"/>
<path d="M12 24.0345C13.6568 24.0345 15 22.6913 15 21.0345C15 19.3776 13.6568 18.0345 12 18.0345C10.3431 18.0345 9 19.3776 9 21.0345C9 22.6913 10.3431 24.0345 12 24.0345Z" fill="#E8F3FF"/>
<path d="M21 24.0345C22.6568 24.0345 24 22.6913 24 21.0345C24 19.3776 22.6568 18.0345 21 18.0345C19.3431 18.0345 18 19.3776 18 21.0345C18 22.6913 19.3431 24.0345 21 24.0345Z" fill="#E8F3FF"/>
<path d="M3 24.0345C4.65685 24.0345 5.99999 22.6913 5.99999 21.0345C5.99999 19.3776 4.65685 18.0345 3 18.0345C1.34314 18.0345 0 19.3776 0 21.0345C0 22.6913 1.34314 24.0345 3 24.0345Z" fill="#E8F3FF"/>
<path d="M21 15.0345C22.6568 15.0345 24 13.6913 24 12.0345C24 10.3776 22.6568 9.03448 21 9.03448C19.3431 9.03448 18 10.3776 18 12.0345C18 13.6913 19.3431 15.0345 21 15.0345Z" fill="#E8F3FF"/>
<path d="M12 15.0345C13.6568 15.0345 15 13.6913 15 12.0345C15 10.3776 13.6568 9.03448 12 9.03448C10.3431 9.03448 9 10.3776 9 12.0345C9 13.6913 10.3431 15.0345 12 15.0345Z" fill="#E8F3FF"/>
</svg>
